<svg width="18" height="18" viewBox="0 0 18 18" fill="none" xmlns="http://www.w3.org/2000/svg">
<path d="M12.9324 17.4408C13.0982 17.5963 13.323 17.6836 13.5575 17.6836C13.792 17.6836 14.0169 17.5963 14.1827 17.4408C14.3485 17.2854 14.4416 17.0745 14.4416 16.8547V2.96017L16.1474 4.70528C16.3059 4.86737 16.5266 4.96379 16.7609 4.97332C16.9953 4.98286 17.224 4.90473 17.3969 4.75612C17.5698 4.60751 17.6727 4.40059 17.6828 4.18089C17.693 3.96119 17.6097 3.7467 17.4512 3.58461L14.2094 0.269014C14.1266 0.184256 14.0259 0.116577 13.9136 0.0702744C13.8014 0.0239735 13.6801 6.29425e-05 13.5575 6.29425e-05C13.4349 6.29425e-05 13.3136 0.0239735 13.2014 0.0702744C13.0892 0.116577 12.9885 0.184256 12.9056 0.269014L9.66389 3.58461C9.50538 3.7467 9.42204 3.96119 9.43221 4.18089C9.44238 4.40059 9.54522 4.60751 9.71811 4.75612C9.891 4.90473 10.1198 4.98286 10.3541 4.97332C10.5885 4.96379 10.8091 4.86737 10.9677 4.70528L12.6734 2.96017V16.8547C12.6734 17.0745 12.7666 17.2854 12.9324 17.4408Z" fill="#767873"/>
<path d="M4.37238 0.558648C4.31238 0.395584 4.19962 0.254131 4.0498 0.154003C3.89999 0.053875 3.72059 6.10352e-05 3.5366 6.10352e-05C3.35262 6.10352e-05 3.17322 0.053875 3.0234 0.154003C2.87359 0.254131 2.76082 0.395584 2.70082 0.558648L0.0484937 7.7424C-0.0281032 7.95022 -0.0135079 8.17805 0.0890688 8.37578C0.191646 8.57351 0.373801 8.72494 0.595464 8.79675C0.817126 8.86856 1.06014 8.85488 1.27104 8.75871C1.48194 8.66254 1.64345 8.49176 1.72005 8.28394L2.12556 7.18428H4.94764L5.35316 8.28394C5.42975 8.49176 5.59127 8.66254 5.80217 8.75871C6.01307 8.85488 6.25608 8.86856 6.47774 8.79675C6.69941 8.72494 6.88156 8.57351 6.98414 8.37578C7.08671 8.17805 7.10131 7.95022 7.02471 7.7424L4.37238 0.558648ZM3.5366 3.36363L4.33584 5.52649H2.73855L3.5366 3.36363ZM1.17898 9.94726C0.944496 9.94726 0.719619 10.0346 0.553816 10.19C0.388013 10.3455 0.294866 10.5563 0.294866 10.7762C0.294866 10.996 0.388013 11.2068 0.553816 11.3623C0.719619 11.5177 0.944496 11.605 1.17898 11.605H4.15784L0.464615 16.3673C0.368768 16.4909 0.311238 16.637 0.298381 16.7893C0.285524 16.9417 0.317842 17.0944 0.391763 17.2306C0.465684 17.3668 0.57833 17.4812 0.717254 17.5612C0.856178 17.6411 1.01597 17.6835 1.17898 17.6836H5.89423C6.12871 17.6836 6.35359 17.5963 6.51939 17.4408C6.68519 17.2854 6.77834 17.0745 6.77834 16.8547C6.77834 16.6349 6.68519 16.424 6.51939 16.2686C6.35359 16.1131 6.12871 16.0258 5.89423 16.0258H2.91537L6.60977 11.2635C6.70568 11.1399 6.76322 10.9937 6.77603 10.8413C6.78884 10.6888 6.75642 10.536 6.68235 10.3998C6.60829 10.2635 6.49547 10.1491 6.35638 10.0693C6.21728 9.98942 6.05734 9.94718 5.89423 9.94726H1.17898Z" fill="#767873"/>
</svg>
