<svg width="18" height="18" viewBox="0 0 18 18" fill="none" xmlns="http://www.w3.org/2000/svg">
<path d="M1.19902 9.2556e-08C1.08094 9.02621e-08 0.964021 0.0214401 0.854932 0.0630961C0.745844 0.104752 0.646723 0.165808 0.56323 0.242779C0.479737 0.319749 0.413507 0.411126 0.368321 0.511692C0.323135 0.612259 0.299878 0.720046 0.299878 0.828898C0.299878 0.93775 0.323135 1.04554 0.368321 1.1461C0.413507 1.24667 0.479737 1.33805 0.56323 1.41502C0.646723 1.49199 0.745844 1.55304 0.854932 1.5947C0.964021 1.63636 1.08094 1.6578 1.19902 1.6578H4.22852L0.472513 6.42009C0.375037 6.5437 0.316528 6.68976 0.303453 6.84211C0.290378 6.99445 0.323245 7.14717 0.398423 7.28338C0.4736 7.41959 0.588161 7.53398 0.729447 7.61393C0.870733 7.69387 1.03324 7.73625 1.19902 7.73638H5.99443C6.2329 7.73638 6.4616 7.64905 6.63022 7.4936C6.79884 7.33815 6.89357 7.12732 6.89357 6.90748C6.89357 6.68765 6.79884 6.47681 6.63022 6.32136C6.4616 6.16591 6.2329 6.07858 5.99443 6.07858H2.96493L6.72214 1.31629C6.81967 1.1926 6.87819 1.04645 6.89122 0.893999C6.90425 0.741553 6.87128 0.588755 6.79596 0.45251C6.72063 0.316265 6.6059 0.201884 6.46444 0.122021C6.32298 0.0421589 6.16031 -7.21598e-05 5.99443 9.2556e-08H1.19902ZM4.44671 9.3997C4.3857 9.23664 4.27101 9.09518 4.11865 8.99506C3.96629 8.89493 3.78384 8.84111 3.59673 8.84111C3.40961 8.84111 3.22716 8.89493 3.0748 8.99506C2.92244 9.09518 2.80776 9.23664 2.74674 9.3997L0.0493177 16.5835C0.0107459 16.6864 -0.00546255 16.7953 0.00161766 16.904C0.00869786 17.0126 0.0389282 17.119 0.0905825 17.2169C0.142237 17.3148 0.214303 17.4023 0.302668 17.4746C0.391032 17.5468 0.493964 17.6023 0.605586 17.6378C0.717208 17.6734 0.835334 17.6883 0.95322 17.6818C1.07111 17.6753 1.18644 17.6474 1.29265 17.5998C1.39885 17.5522 1.49384 17.4857 1.57219 17.4043C1.65054 17.3228 1.71072 17.2279 1.74929 17.125L2.1617 16.0254H5.03175L5.44416 17.125C5.52206 17.3329 5.68632 17.5036 5.90081 17.5998C6.11529 17.696 6.36244 17.7097 6.58787 17.6378C6.8133 17.566 6.99855 17.4146 7.10287 17.2169C7.20719 17.0191 7.22203 16.7913 7.14413 16.5835L4.44671 9.3997V9.3997ZM3.59673 12.2047L4.40955 14.3676H2.7851L3.59673 12.2047ZM13.4873 9.2556e-08C13.7257 9.2556e-08 13.9544 0.0873301 14.1231 0.242779C14.2917 0.398227 14.3864 0.609061 14.3864 0.828898V14.7234L16.1212 12.9783C16.2824 12.8162 16.5068 12.7198 16.7451 12.7103C16.9834 12.7007 17.2161 12.7789 17.3919 12.9275C17.5678 13.0761 17.6724 13.283 17.6827 13.5027C17.693 13.7224 17.6083 13.9369 17.4471 14.099L14.1502 17.4146C14.066 17.4994 13.9636 17.567 13.8494 17.6133C13.7353 17.6596 13.612 17.6835 13.4873 17.6835C13.3626 17.6835 13.2392 17.6596 13.1251 17.6133C13.011 17.567 12.9085 17.4994 12.8243 17.4146L9.52745 14.099C9.36625 13.9369 9.2815 13.7224 9.29184 13.5027C9.30218 13.283 9.40677 13.0761 9.5826 12.9275C9.75843 12.7789 9.9911 12.7007 10.2294 12.7103C10.4677 12.7198 10.6922 12.8162 10.8534 12.9783L12.5881 14.7234V0.828898C12.5881 0.609061 12.6829 0.398227 12.8515 0.242779C13.0201 0.0873301 13.2488 9.2556e-08 13.4873 9.2556e-08Z" fill="#767873"/>
</svg>
