<svg width="18" height="18" viewBox="0 0 18 18" fill="none" xmlns="http://www.w3.org/2000/svg">
<path d="M8.39973 7.4457H16.3573C16.7091 7.4457 17.0464 7.59279 17.2951 7.8546C17.5439 8.11642 17.6836 8.47151 17.6836 8.84177C17.6836 9.21203 17.5439 9.56713 17.2951 9.82894C17.0464 10.0908 16.7091 10.2378 16.3573 10.2378H8.39973C8.04799 10.2378 7.71064 10.0908 7.46192 9.82894C7.2132 9.56713 7.07347 9.21203 7.07347 8.84177C7.07347 8.47151 7.2132 8.11642 7.46192 7.8546C7.71064 7.59279 8.04799 7.4457 8.39973 7.4457ZM16.3573 2.79214H1.32631C0.974567 2.79214 0.637228 2.64505 0.388504 2.38324C0.13978 2.12143 4.95911e-05 1.76633 4.95911e-05 1.39607C4.95911e-05 1.02581 0.13978 0.670713 0.388504 0.408899C0.637228 0.147085 0.974567 0 1.32631 0H16.3573C16.7091 0 17.0464 0.147085 17.2951 0.408899C17.5439 0.670713 17.6836 1.02581 17.6836 1.39607C17.6836 1.76633 17.5439 2.12143 17.2951 2.38324C17.0464 2.64505 16.7091 2.79214 16.3573 2.79214ZM10.1681 14.8914H16.3573C16.7091 14.8914 17.0464 15.0385 17.2951 15.3003C17.5439 15.5621 17.6836 15.9172 17.6836 16.2875C17.6836 16.6577 17.5439 17.0128 17.2951 17.2746C17.0464 17.5365 16.7091 17.6835 16.3573 17.6835H10.1681C9.81634 17.6835 9.479 17.5365 9.23028 17.2746C8.98155 17.0128 8.84182 16.6577 8.84182 16.2875C8.84182 15.9172 8.98155 15.5621 9.23028 15.3003C9.479 15.0385 9.81634 14.8914 10.1681 14.8914Z" fill="#767873"/>
</svg>
