<svg width="40" height="14" viewBox="0 0 40 14" fill="none" xmlns="http://www.w3.org/2000/svg">
<path d="M26.0535 0C23.2133 0 20.6752 1.48965 20.6752 4.24189C20.6752 7.39819 25.1766 7.6162 25.1766 9.20184C25.1766 9.86948 24.4205 10.4671 23.1291 10.4671C21.2963 10.4671 19.9265 9.63204 19.9265 9.63204L19.3404 12.4094C19.3404 12.4094 20.9184 13.1148 23.0134 13.1148C26.1186 13.1148 28.562 11.552 28.562 8.75266C28.562 5.41746 24.0419 5.20593 24.0419 3.73419C24.0419 3.21119 24.6626 2.63813 25.9503 2.63813C27.4032 2.63813 28.5886 3.24547 28.5886 3.24547L29.1622 0.563055C29.1622 0.563055 27.8724 0 26.0535 0ZM0.0687715 0.202447L0 0.60734C0 0.60734 1.19486 0.828625 2.27102 1.27004C3.65667 1.77621 3.75538 2.07087 3.98875 2.98609L6.53173 12.906H9.94061L15.1922 0.202447H11.7912L8.41669 8.83965L7.0397 1.51835C6.91342 0.680434 6.27376 0.202447 5.49078 0.202447H0.0687715ZM16.5599 0.202447L13.8918 12.906H17.135L19.7937 0.202447H16.5599ZM34.6483 0.202447C33.8663 0.202447 33.4519 0.626134 33.1479 1.36652L28.3964 12.906H31.7974L32.4555 10.9827H36.5989L36.9991 12.906H40L37.382 0.202447H34.6483ZM35.0907 3.63455L36.0988 8.40154H33.3979L35.0907 3.63455Z" fill="#1434CB"/>
</svg>
