<svg width="18" height="18" viewBox="0 0 18 18" fill="none" xmlns="http://www.w3.org/2000/svg">
<path d="M8.39973 10.5543H16.3573C16.7091 10.5543 17.0464 10.4072 17.2951 10.1454C17.5439 9.88358 17.6836 9.52849 17.6836 9.15823C17.6836 8.78797 17.5439 8.43287 17.2951 8.17106C17.0464 7.90924 16.7091 7.76216 16.3573 7.76216H8.39973C8.04799 7.76216 7.71064 7.90924 7.46192 8.17106C7.2132 8.43287 7.07347 8.78797 7.07347 9.15823C7.07347 9.52849 7.2132 9.88358 7.46192 10.1454C7.71064 10.4072 8.04799 10.5543 8.39973 10.5543ZM16.3573 15.2079H1.32631C0.974567 15.2079 0.637227 15.3549 0.388504 15.6168C0.139781 15.8786 4.8923e-05 16.2337 4.8923e-05 16.6039C4.8923e-05 16.9742 0.139781 17.3293 0.388504 17.5911C0.637227 17.8529 0.974567 18 1.32631 18H16.3573C16.7091 18 17.0464 17.8529 17.2951 17.5911C17.5439 17.3293 17.6836 16.9742 17.6836 16.6039C17.6836 16.2337 17.5439 15.8786 17.2951 15.6168C17.0464 15.3549 16.7091 15.2079 16.3573 15.2079ZM10.1681 3.10859H16.3573C16.7091 3.10859 17.0464 2.96151 17.2951 2.69969C17.5439 2.43788 17.6836 2.08279 17.6836 1.71253C17.6836 1.34226 17.5439 0.98717 17.2951 0.725356C17.0464 0.463542 16.7091 0.316457 16.3573 0.316457H10.1681C9.81634 0.316457 9.479 0.463542 9.23028 0.725356C8.98155 0.98717 8.84182 1.34226 8.84182 1.71253C8.84182 2.08279 8.98155 2.43788 9.23028 2.69969C9.479 2.96151 9.81634 3.10859 10.1681 3.10859Z" fill="#767873"/>
</svg>
