<svg width="18" height="18" viewBox="0 0 18 18" fill="none" xmlns="http://www.w3.org/2000/svg">
<path d="M17.6835 2.79214V4.65356H14.8914V7.4457H13.03V4.65356H10.2378V2.79214H13.03V0H14.8914V2.79214H17.6835ZM14.8914 15.8221H1.86143V2.79214H7.4457V0.930713H1.86143C1.3682 0.932186 0.895593 1.12877 0.546826 1.47754C0.19806 1.82631 0.00147306 2.29891 0 2.79214V15.8221C0.00147306 16.3153 0.19806 16.788 0.546826 17.1367C0.895593 17.4855 1.3682 17.6821 1.86143 17.6835H14.8914C15.3846 17.6821 15.8572 17.4855 16.206 17.1367C16.5548 16.788 16.7514 16.3153 16.7528 15.8221V10.2378H14.8914V15.8221Z" fill="#767873"/>
</svg>
