<svg width="21" height="21" viewBox="0 0 21 21" fill="none" xmlns="http://www.w3.org/2000/svg">
<path d="M19.8283 9.16249C20.4481 9.90471 20.4481 10.984 19.8283 11.7263L19.1103 12.5861C18.7713 12.9922 18.6069 13.5161 18.6532 14.0431L18.7527 15.1752C18.8395 16.163 18.1894 17.0653 17.2249 17.2956L16.3222 17.5111C15.7816 17.6402 15.3192 17.9883 15.0457 18.4721L14.5782 19.2988C14.069 20.1993 12.9572 20.5629 12.0144 20.1373L11.275 19.8036C10.7502 19.5667 10.1489 19.5675 9.62471 19.8057L8.88668 20.1411C7.94315 20.5699 6.82836 20.2069 6.31825 19.3047L5.85308 18.482C5.57956 17.9983 5.1171 17.6502 4.57658 17.5211L3.67348 17.3055C2.70911 17.0752 2.059 16.1732 2.14558 15.1855L2.24575 14.0429C2.29193 13.516 2.12755 12.9923 1.78856 12.5863L1.06847 11.724C0.449557 10.9828 0.448606 9.9052 1.06621 9.1629L1.79083 8.29198C2.12842 7.88623 2.29192 7.36348 2.24571 6.83769L2.14645 5.7084C2.05943 4.71847 2.71245 3.8148 3.67967 3.58669L4.57283 3.37604C5.11557 3.24803 5.58023 2.89925 5.8547 2.41384L6.32057 1.58993C6.82971 0.689473 7.94149 0.325852 8.88433 0.751416L9.62657 1.08644C10.1497 1.32256 10.749 1.32256 11.2722 1.08644L12.0144 0.751415C12.9572 0.325851 14.069 0.689472 14.5782 1.58993L15.0457 2.4167C15.3192 2.90044 15.7816 3.24857 16.3222 3.37762L17.2249 3.59315C18.1894 3.82344 18.8395 4.72574 18.7527 5.71359L18.6532 6.84561C18.6069 7.37263 18.7713 7.89653 19.1103 8.30262L19.8283 9.16249ZM-nan -nanL18.3624 10.4444L17.1261 8.94602C16.8041 8.55583 16.6471 8.05544 16.6883 7.55126L16.7109 7.27583C16.7919 6.28588 16.1341 5.38646 15.1662 5.16366L15.1162 5.15217C14.5642 5.02512 14.092 4.66998 13.8168 4.17493L13.7766 4.1027C13.2813 3.21173 12.1856 2.8494 11.2567 3.26945C10.7435 3.50154 10.1552 3.50154 9.642 3.26945C8.71316 2.8494 7.61741 3.21173 7.12209 4.1027L7.08405 4.17111C6.8076 4.66838 6.33244 5.02437 5.77753 5.14997L5.74021 5.15842C4.76874 5.3783 4.10713 6.27949 4.18838 7.27221L4.20871 7.52072C4.25106 8.03821 4.0905 8.55189 3.76098 8.95314L3.58367 9.16905C2.97559 9.9095 2.97808 10.9772 3.5896 11.7148L3.75484 11.9141C4.08815 12.3162 4.25098 12.8326 4.20853 13.3531L4.18731 13.6134C4.1066 14.6031 4.76434 15.5022 5.73208 15.725L5.78252 15.7366C6.33449 15.8636 6.80671 16.2188 7.08193 16.7138L7.12106 16.7842C7.61652 17.6754 8.71373 18.0362 9.6414 17.6129C10.1548 17.3786 10.7449 17.3778 11.2591 17.6104C12.1864 18.0298 13.2815 17.6695 13.7776 16.7809L13.8186 16.7074C14.0928 16.2161 14.5614 15.8631 15.1092 15.7349L15.1738 15.7198C16.1382 15.4941 16.7922 14.5965 16.7114 13.6093L16.6883 13.3272C16.6471 12.8233 16.8046 12.3234 17.1273 11.9342L18.3624 10.4444L-nan -nanZM9.49942 14.3898C9.49942 13.8652 9.92473 13.4399 10.4494 13.4399C10.974 13.4399 11.3993 13.8652 11.3993 14.3898V14.487C11.3993 15.0116 10.974 15.4369 10.4494 15.4369C9.92473 15.4369 9.49942 15.0116 9.49942 14.487V14.3898ZM9.49942 6.40178C9.49942 5.87715 9.92473 5.45184 10.4494 5.45184C10.974 5.45184 11.3993 5.87715 11.3993 6.40179V10.4929C11.3993 11.0176 10.974 11.4429 10.4494 11.4429C9.92473 11.4429 9.49942 11.0176 9.49942 10.4929V6.40178Z" fill="#FFA500"/>
</svg>
